<?xml version="1.0" encoding="UTF-8"?><svg id="Layer_2" xmlns="http://www.w3.org/2000/svg" xmlns:xlink="http://www.w3.org/1999/xlink" viewBox="0 0 1756.68 1353.05"><defs><style>.cls-1{fill:#fff;}.cls-2{clip-path:url(#clippath);}.cls-3{fill:none;}.cls-4{fill:url(#linear-gradient);}</style><clipPath id="clippath"><path class="cls-3" d="M1299.61,283.77c0-16.86,13.69-30.53,30.55-30.53s30.53,13.67,30.53,30.53v261.68c0,16.87-13.67,30.54-30.53,30.54s-30.55-13.67-30.55-30.54V283.77Zm-68.02,364.16c0,16.86-13.66,30.55-30.52,30.55s-30.53-13.69-30.53-30.55V145.45c0-16.86,13.67-30.53,30.53-30.53s30.52,13.67,30.52,30.53v502.48Zm464.05-220.55c0-16.86,13.66-30.54,30.52-30.54s30.52,13.68,30.52,30.54v6.8c0,16.86-13.66,30.53-30.52,30.53s-30.52-13.67-30.52-30.53v-6.8Zm-137.83-27.76c0-16.86,13.66-30.52,30.52-30.52s30.52,13.66,30.52,30.52v62.3c0,16.86-13.66,30.54-30.52,30.54s-30.52-13.68-30.52-30.54v-62.3Zm-645.45,270.62l-.02-.89V95.07c0-26.07,10.7-49.83,27.95-67.12l-.04-.05c17.21-17.22,40.98-27.9,67.17-27.9s49.95,10.68,67.17,27.9c17.22,17.21,27.89,40.99,27.89,67.17v117.75l.02,.79V763.05c0,16.85-13.69,30.52-30.53,30.52s-30.55-13.67-30.55-30.52V95.07c0-9.32-3.84-17.82-10.02-24-6.16-6.17-14.67-10.02-23.98-10.02s-17.82,3.84-24.01,10.02l-.05-.07-.06,.07c-5.98,5.97-9.74,14.24-9.9,23.39V790.31c0,26.17-10.7,49.98-27.89,67.17-.67,.67-1.36,1.29-2.08,1.88-17.1,16.12-40.04,26.04-65.12,26.04s-49.82-10.68-67.04-27.91l-.06-.05-.07,.05c-17.2-17.2-27.89-41-27.89-67.17V95.07c0-9.4-3.8-17.89-9.89-24l-.07-.07-.06,.07c-6.16-6.17-14.67-10.02-23.98-10.02s-17.89,3.82-24.05,9.95l.05,.07c-6.16,6.18-10.01,14.68-10.01,24V763.05c0,16.85-13.69,30.52-30.55,30.52s-30.52-13.67-30.52-30.52V95.07c0-26.18,10.7-49.96,27.91-67.17l.06,.05,.05-.05c17.22-17.22,40.98-27.9,67.06-27.9s49.95,10.68,67.17,27.9l-.07,.05c17.27,17.29,27.98,41.05,27.98,67.12V790.31c0,9.33,3.82,17.82,10,23.98l-.06,.09c6.19,6.12,14.7,9.96,24.05,9.96,8.82,0,16.86-3.35,22.84-8.8l1.16-1.25c6.19-6.16,10.02-14.65,10.02-23.98v-120.07ZM396,283.77c0-16.86,13.66-30.53,30.52-30.53s30.55,13.67,30.55,30.53v261.68c0,16.87-13.7,30.54-30.55,30.54s-30.52-13.67-30.52-30.54V283.77Zm190.15,364.16c0,16.86-13.66,30.55-30.52,30.55s-30.53-13.69-30.53-30.55V145.45c0-16.86,13.67-30.53,30.53-30.53s30.52,13.67,30.52,30.53v502.48ZM0,427.38c0-16.86,13.66-30.54,30.52-30.54s30.53,13.68,30.53,30.54v6.8c0,16.86-13.66,30.53-30.53,30.53S0,451.04,0,434.18v-6.8ZM266.91,237.19c0-16.86,13.66-30.53,30.52-30.53s30.55,13.66,30.55,30.53v354.85c0,16.86-13.69,30.53-30.55,30.53s-30.52-13.67-30.52-30.53V237.19Zm-129.08,162.43c0-16.86,13.66-30.52,30.52-30.52s30.53,13.66,30.53,30.52v62.3c0,16.86-13.66,30.54-30.53,30.54s-30.52-13.68-30.52-30.54v-62.3Zm1290.88,94.09V237.19c0-16.86,13.67-30.53,30.55-30.53s30.52,13.66,30.52,30.53v354.85c0,16.86-13.69,30.53-30.52,30.53s-30.55-13.67-30.55-30.53v-98.32Z"/></clipPath><linearGradient id="linear-gradient" x1="137.81" y1="442.7" x2="1704.66" y2="442.7" gradientUnits="userSpaceOnUse"><stop offset="0" stop-color="#dd6f96"/><stop offset=".4" stop-color="#3a9eda"/><stop offset="1" stop-color="#8fffc3"/></linearGradient></defs><g id="Layer_1-2"><g><g class="cls-2"><rect class="cls-4" width="1756.68" height="885.4"/></g><path class="cls-1" d="M1752.51,1309.87l-18.24-17.86c-23.52,22.42-45.62,35.42-79.3,35.42-54.04,0-95.1-44.57-95.1-101.74s40.7-101.07,95.1-101.07c33.34,0,56.5,14.02,77.2,33.68l18.96-20.37c-24.57-23.14-51.25-38.95-95.8-38.95-72.3,0-124.25,57.21-124.25,127.38s52.3,126.71,123.18,126.71c44.57,0,72.64-17.19,98.26-43.19m-470.25-206.7v245.64h27.73v-245.64h-27.73Zm-365.7,61.41c0-22.42,20.37-39.97,52.3-39.97,25.28,0,48.08,8.04,70.88,26.66l16.14-21.44c-24.9-19.96-50.53-30.14-86.3-30.14-46.67,0-80.73,28.05-80.73,67.35s25.97,58.95,82.47,71.23c51.59,10.9,63.87,23.89,63.87,47.03,0,24.92-21.75,42.12-54.73,42.12s-58.62-11.57-84.23-34.75l-17.2,20.37c29.48,26.3,61.41,39.3,100.38,39.3,48.77,0,83.88-27.38,83.88-69.86,0-37.87-25.28-57.88-80.04-69.8-54.04-11.61-66.68-24.57-66.68-48.1Zm-247.05-61.41h-27.71v142.83c0,53.68-28.78,81.06-74.05,81.06s-75.1-29.84-75.1-82.8v-141.09h-27.73v142.83c0,69.5,41.42,106.7,102.12,106.7s102.48-37.2,102.48-108.8v-140.73Zm-457.98,46.67v198.97h27.73v-245.64h-28.07l-89.51,134.07-89.48-134.07H4.13v245.64H31.16v-198.61l89.48,131.26h1.41l89.48-131.62Z"/></g></g></svg>